<svg width="100" height="100" viewBox="0 0 100 100" fill="none" xmlns="http://www.w3.org/2000/svg">
<path d="M50 9.375C32.7687 9.375 18.75 23.3938 18.75 40.625C18.75 57.8563 32.7687 71.875 50 71.875C67.2313 71.875 81.25 57.8563 81.25 40.625C81.25 23.3938 67.2313 9.375 50 9.375ZM50 15.625C63.7844 15.625 75 26.8406 75 40.625C75 54.4094 63.7844 65.625 50 65.625C36.2156 65.625 25 54.4094 25 40.625C25 26.8406 36.2156 15.625 50 15.625ZM46.875 21.875V25.5937C44.6217 26.413 42.7559 28.0447 41.6437 30.1688C40.6751 32.0387 40.3836 34.1864 40.8188 36.2469C41.2033 38.0396 42.0949 39.684 43.3875 40.9844C44.2406 41.8375 45.2563 42.5281 46.375 43.0062C47.4938 43.4844 48.7188 43.75 50 43.75C50.4437 43.75 50.8625 43.8344 51.2375 43.9875C51.6087 44.1385 51.9459 44.3623 52.2293 44.6457C52.5127 44.9291 52.7365 45.2663 52.8875 45.6375C53.0406 46.0125 53.125 46.4313 53.125 46.875C53.1386 47.4906 52.9656 48.0959 52.6287 48.6112C52.2918 49.1266 51.8068 49.528 51.2375 49.7625C50.8625 49.9156 50.4437 50 50 50C49.5531 50 49.1375 49.9156 48.7625 49.7625C48.3916 49.611 48.0548 49.3868 47.7719 49.1031C47.4823 48.8097 47.2538 48.4616 47.0999 48.0791C46.9459 47.6966 46.8695 47.2873 46.875 46.875H40.625C40.6254 49.3064 41.5882 51.6389 43.3031 53.3625C44.3067 54.386 45.5274 55.171 46.875 55.6594V59.375H53.125V55.6562C54.7007 55.0914 56.0981 54.1182 57.1743 52.8361C58.2505 51.554 58.9668 50.0091 59.25 48.3594C59.636 46.016 59.1007 43.6141 57.7563 41.6562C57.0781 40.6579 56.2171 39.7969 55.2188 39.1187C54.2068 38.4321 53.0712 37.9481 51.875 37.6938C51.2583 37.5651 50.63 37.5001 50 37.5C49.5531 37.5 49.1375 37.4156 48.7625 37.2625C48.3913 37.1115 48.0541 36.8877 47.7707 36.6043C47.4873 36.3209 47.2635 35.9837 47.1125 35.6125C46.9537 35.2194 46.873 34.799 46.875 34.375C46.875 33.9281 46.9594 33.5125 47.1125 33.1375C47.2635 32.7663 47.4873 32.4291 47.7707 32.1457C48.0541 31.8623 48.3913 31.6385 48.7625 31.4875C49.1375 31.3344 49.5563 31.25 50 31.25C51.7812 31.25 53.125 32.5938 53.125 34.375H59.375C59.3758 33.394 59.2196 32.4192 58.9125 31.4875C58.4525 30.1335 57.6933 28.9005 56.6914 27.8801C55.6894 26.8598 54.4704 26.0783 53.125 25.5937V21.875H46.875ZM6.25 65.625V90.625H12.5V71.875H29.3125C26.6627 70.1031 24.2477 68.0031 22.125 65.625H6.25ZM77.875 65.625C75.7523 68.0031 73.3373 70.1031 70.6875 71.875H87.5V90.625H93.75V65.625H77.875ZM18.75 78.125V84.375H81.25V78.125H18.75Z" fill="#878181"/>
</svg>
