<svg width="100" height="100" viewBox="0 0 100 100" fill="none" xmlns="http://www.w3.org/2000/svg">
<path d="M65.3833 51.6042L49.6958 36.5708C47.8624 34.8069 46.3333 32.8347 45.1083 30.6542C43.8833 28.4736 43.2708 26.0986 43.2708 23.5292C43.2708 20.4653 44.343 17.8611 46.4874 15.7167C48.6291 13.5722 51.2305 12.5 54.2916 12.5C56.5666 12.5 58.636 13.1153 60.4999 14.3458C62.3638 15.5764 63.9902 17.0708 65.3791 18.8292C66.768 17.0708 68.3958 15.5764 70.2624 14.3458C72.1235 13.1153 74.193 12.5 76.4708 12.5C79.5347 12.5 82.1374 13.5722 84.2791 15.7167C86.4208 17.8611 87.4944 20.4639 87.4999 23.525C87.4999 26.0972 86.8916 28.4736 85.6749 30.6542C84.4555 32.8347 82.9291 34.8069 81.0958 36.5708L65.3833 51.6042ZM65.3833 45.8667L77.8624 33.9208C79.3402 32.4931 80.6222 30.9125 81.7083 29.1792C82.7916 27.4458 83.3333 25.5611 83.3333 23.525C83.3333 21.625 82.6666 20.0069 81.3333 18.6708C79.9999 17.3347 78.3791 16.6667 76.4708 16.6667C74.8041 16.6667 73.3097 17.1653 71.9874 18.1625C70.6652 19.1569 69.4777 20.3306 68.4249 21.6833L65.3833 25.4958L62.3374 21.6833C61.2819 20.3306 60.0944 19.1569 58.7749 18.1625C57.4527 17.1653 55.9583 16.6667 54.2916 16.6667C52.3888 16.6667 50.7708 17.3333 49.4374 18.6667C48.1013 20.0056 47.4333 21.625 47.4333 23.525C47.4333 25.5611 47.9749 27.4458 49.0583 29.1792C50.1416 30.9125 51.4235 32.4931 52.9041 33.9208L65.3833 45.8667ZM26.6833 77.725L58.2041 86.9208L83.1583 79.2125C83.0749 77.9486 82.6958 77.0375 82.0208 76.4792C81.3458 75.9208 80.5819 75.6417 79.7291 75.6417H59.9583C58.1972 75.6417 56.5999 75.5722 55.1666 75.4333C53.7333 75.2944 52.268 74.9639 50.7708 74.4417L41.6458 71.45L43.0541 67.3333L51.4916 70.3833C52.8305 70.8917 54.3527 71.1972 56.0583 71.3C57.761 71.4 60.0944 71.4583 63.0583 71.475C63.0583 70.175 62.8194 69.125 62.3416 68.325C61.8638 67.525 61.1791 66.9667 60.2874 66.65L36.3124 57.85C36.1541 57.7972 36.0069 57.7583 35.8708 57.7333C35.7347 57.7083 35.5888 57.6944 35.4333 57.6917H26.6833V77.725ZM10.0166 87.5V53.525H35.3333C35.7222 53.525 36.1222 53.5694 36.5333 53.6583C36.9444 53.7472 37.3263 53.85 37.6791 53.9667L61.7583 62.7875C63.2499 63.3542 64.5333 64.3722 65.6083 65.8417C66.686 67.3111 67.2249 69.1889 67.2249 71.475H79.7249C82.236 71.475 84.1583 72.2597 85.4916 73.8292C86.8277 75.4014 87.4958 77.3944 87.4958 79.8083V82.3708L58.4124 91.3458L26.6791 82.0958V87.5H10.0166ZM14.1833 83.3333H22.5166V57.6917H14.1833V83.3333Z" fill="#878181"/>
</svg>
