<svg width="100" height="100" viewBox="0 0 100 100" fill="none" xmlns="http://www.w3.org/2000/svg">
<path d="M51.1663 80.1247C54.0997 79.9164 56.9941 79.4483 59.8497 78.7206C63.3636 79.7737 67.0712 80.0131 70.6913 79.4206C70.8351 79.4019 70.9798 79.3908 71.1247 79.3872C72.4163 79.3872 74.1122 80.1289 76.583 81.6914V79.1247C76.5836 78.6776 76.7042 78.2387 76.9321 77.854C77.16 77.4692 77.4869 77.1526 77.8788 76.9372C78.9538 76.3414 79.9538 75.6456 80.8663 74.8872C84.4664 71.8747 86.4997 67.8622 86.4997 63.6122C86.4983 62.2068 86.2747 60.8104 85.8372 59.4747C86.9205 57.4747 87.8038 55.3664 88.4497 53.1831C90.533 56.2664 91.658 59.8914 91.6664 63.6122C91.6664 69.3872 88.9413 74.7789 84.2289 78.7164C83.4405 79.3722 82.6125 79.9789 81.7497 80.5331V86.5414C81.7497 88.6081 79.333 89.7914 77.6288 88.5664C76.0166 87.3758 74.348 86.2634 72.6288 85.2331C72.1345 84.9426 71.6208 84.6864 71.0913 84.4664C69.6747 84.6775 68.233 84.7845 66.7663 84.7872C60.883 84.7872 55.4455 83.0456 51.1663 80.1247ZM20.058 68.0997C12.6247 61.8914 8.33301 53.4081 8.33301 44.3331C8.33301 25.7747 26.0747 10.9414 47.7372 10.9414C69.3997 10.9414 87.1455 25.7747 87.1455 44.3331C87.1455 62.8914 69.3997 77.7206 47.7372 77.7206C45.3011 77.7206 42.9011 77.5359 40.5372 77.1664C39.5163 77.4039 35.4372 79.7956 29.558 84.0331C27.433 85.5706 24.408 84.0872 24.408 81.4997V71.2497C22.8848 70.3077 21.4311 69.2578 20.058 68.1081M40.683 70.8497C40.858 70.8497 41.0386 70.8636 41.2247 70.8914C43.3771 71.2484 45.5554 71.4268 47.7372 71.4247C66.0372 71.4247 80.683 59.1789 80.683 44.3331C80.683 29.4872 66.0372 17.2456 47.7372 17.2456C29.4455 17.2456 14.7913 29.4914 14.7913 44.3331C14.7913 51.5122 18.2122 58.2706 24.2622 63.3289C25.79 64.6011 27.4511 65.7414 29.2455 66.7497C30.2497 67.3122 30.8705 68.3539 30.8705 69.4789V75.3914C35.5205 72.3081 38.5788 70.8497 40.6788 70.8497" fill="#878181"/>
<path d="M31.7708 50.0007C33.1522 50.0007 34.4769 49.4519 35.4537 48.4752C36.4304 47.4984 36.9792 46.1737 36.9792 44.7923C36.9792 43.411 36.4304 42.0862 35.4537 41.1095C34.4769 40.1327 33.1522 39.584 31.7708 39.584C30.3895 39.584 29.0647 40.1327 28.088 41.1095C27.1112 42.0862 26.5625 43.411 26.5625 44.7923C26.5625 46.1737 27.1112 47.4984 28.088 48.4752C29.0647 49.4519 30.3895 50.0007 31.7708 50.0007ZM48.6958 50.0007C50.0772 50.0007 51.4019 49.4519 52.3787 48.4752C53.3554 47.4984 53.9042 46.1737 53.9042 44.7923C53.9042 43.411 53.3554 42.0862 52.3787 41.1095C51.4019 40.1327 50.0772 39.584 48.6958 39.584C47.3145 39.584 45.9897 40.1327 45.013 41.1095C44.0362 42.0862 43.4875 43.411 43.4875 44.7923C43.4875 46.1737 44.0362 47.4984 45.013 48.4752C45.9897 49.4519 47.3145 50.0007 48.6958 50.0007ZM65.625 50.0048C67.0063 50.0048 68.3311 49.4561 69.3078 48.4793C70.2846 47.5026 70.8333 46.1778 70.8333 44.7965C70.8333 43.4152 70.2846 42.0904 69.3078 41.1136C68.3311 40.1369 67.0063 39.5882 65.625 39.5882C64.2437 39.5882 62.9189 40.1369 61.9422 41.1136C60.9654 42.0904 60.4167 43.4152 60.4167 44.7965C60.4167 46.1778 60.9654 47.5026 61.9422 48.4793C62.9189 49.4561 64.2437 50.0048 65.625 50.0048Z" fill="#878181"/>
</svg>
